<svg width="222" height="133" viewBox="0 0 222 133" fill="none" xmlns="http://www.w3.org/2000/svg">
<path fill-rule="evenodd" clip-rule="evenodd" d="M220.475 112.074C204.836 112.207 196.354 116.416 187.874 120.623C178.333 125.357 168.795 130.089 149.067 129.012C129.295 127.931 119.083 122.112 108.874 116.295C98.6735 110.482 88.4765 104.671 68.7488 103.594C48.9769 102.513 39.4246 107.253 29.8758 111.99C23.6393 115.085 17.4044 118.178 8.32478 119.649C8.20385 117.573 8.14253 115.482 8.14253 113.376C8.14254 54.7398 55.6765 7.20588 114.313 7.20588C172.514 7.20588 219.777 54.0379 220.475 112.074Z" fill="url(#paint0_linear_1_300)"/>
<defs>
<linearGradient id="paint0_linear_1_300" x1="107.645" y1="6.68035" x2="97.6318" y2="127.406" gradientUnits="userSpaceOnUse">
<stop stop-color="#783EF9"/>
<stop offset="0.432292" stop-color="#8F67EA"/>
<stop offset="1" stop-color="#905FFF"/>
</linearGradient>
</defs>
</svg>
