<svg width="31" height="36" viewBox="0 0 31 36" fill="none" xmlns="http://www.w3.org/2000/svg">
<circle cx="8.59928" cy="8.99191" r="8.02809" fill="#805AD5"/>
<path d="M6.25568 8.02989L8.59436 5.69121L10.9341 8.0309L12.2949 6.67013L8.59436 2.96968L4.89502 6.66903L6.25573 8.02979L6.25568 8.02989ZM2.57329 8.99075L3.9341 7.62975L5.29481 8.99046L3.934 10.3513L2.57329 8.99075ZM6.25568 9.95176L8.59436 12.2903L10.9341 9.95066L12.2956 11.3107L12.2949 11.3114L8.59436 15.0118L4.89502 11.3125L4.89309 11.3106L6.25583 9.95162L6.25568 9.95176ZM11.8939 8.99133L13.2547 7.63052L14.6154 8.99123L13.2547 10.352L11.8939 8.99133Z" fill="white"/>
<path d="M10.0991 8.99076H10.0997L8.59532 7.48628L7.48334 8.59792L7.3556 8.72572L7.09213 8.98924L7.09003 8.99128L7.09213 8.99344L8.59532 10.4968L10.0998 8.99233L10.1006 8.99149L10.0992 8.99076" fill="white"/>
<circle cx="22.2668" cy="24.7655" r="8.41038" fill="#805AD5"/>
<path d="M25.0536 26.8826C25.0536 27.5533 24.8355 28.1189 24.3991 28.5795C23.9709 29.032 23.4133 29.3189 22.7264 29.4401V30.7128H21.6234V29.4764C21.0497 29.4118 20.5285 29.2259 20.0599 28.9189C19.5912 28.6037 19.2235 28.1836 18.9569 27.6583L19.9629 26.7856C20.1811 27.23 20.476 27.5735 20.8477 27.8159C21.2194 28.0502 21.6154 28.1674 22.0356 28.1674C22.4881 28.1674 22.8477 28.0543 23.1143 27.828C23.381 27.5937 23.5143 27.3028 23.5143 26.9553C23.5143 26.5109 23.2234 26.1311 22.6416 25.8159L21.781 25.4038C21.2962 25.1695 20.9487 24.9796 20.7386 24.8342C19.8659 24.2685 19.4296 23.5574 19.4296 22.7009C19.4296 22.0625 19.6356 21.5211 20.0477 21.0767C20.476 20.6242 21.0295 20.3575 21.7083 20.2767V19.1374H22.8113V20.2888C23.6355 20.4343 24.3183 20.8464 24.8597 21.5252L23.987 22.4585C23.4699 21.8524 22.8719 21.5494 22.1931 21.5494C21.8214 21.5494 21.5144 21.6504 21.2719 21.8524C21.0295 22.0464 20.9083 22.309 20.9083 22.6403C20.9083 23.0443 21.1831 23.412 21.7325 23.7433C21.8537 23.816 22.177 23.9857 22.7022 24.2524C23.2678 24.5271 23.6355 24.717 23.8052 24.822C24.6375 25.3392 25.0536 26.026 25.0536 26.8826Z" fill="white"/>
<path d="M21.5456 14.4661C21.633 14.5535 21.7746 14.5535 21.862 14.4661L23.2855 13.0426C23.3729 12.9552 23.3729 12.8136 23.2855 12.7262C23.1982 12.6389 23.0565 12.6389 22.9692 12.7262L21.7038 13.9916L20.4384 12.7262C20.351 12.6389 20.2094 12.6389 20.122 12.7262C20.0347 12.8136 20.0347 12.9552 20.122 13.0426L21.5456 14.4661ZM21.9275 14.308C21.9275 14.3156 21.9277 14.3074 21.9362 14.2517C21.943 14.2073 21.9528 14.145 21.9633 14.0698C21.9845 13.9186 22.0089 13.7126 22.0216 13.4666C22.0468 12.9754 22.0255 12.3214 21.8358 11.6211C21.4525 10.2059 20.3899 8.63629 17.7424 7.83055L17.6122 8.25856C20.1097 9.01867 21.0603 10.4689 21.404 11.738C21.5778 12.3799 21.5984 12.9841 21.5748 13.4436C21.563 13.673 21.5402 13.8654 21.5203 14.0078C21.5102 14.0794 21.5011 14.1377 21.494 14.1842C21.4886 14.2194 21.4801 14.2723 21.4801 14.308H21.9275Z" fill="url(#paint0_linear_1_371)"/>
<path d="M7.30103 18.138C7.18863 18.0629 7.03663 18.0932 6.96154 18.2056L5.73784 20.0373C5.66275 20.1497 5.69299 20.3017 5.8054 20.3768C5.9178 20.4519 6.06979 20.4216 6.14489 20.3092L7.23262 18.681L8.86081 19.7688C8.97321 19.8438 9.1252 19.8136 9.2003 19.7012C9.27539 19.5888 9.24514 19.4368 9.13274 19.3617L7.30103 18.138ZM6.92501 18.3893C6.92337 18.3811 6.92487 18.39 6.92764 18.4515C6.92984 18.5006 6.93262 18.5696 6.93739 18.6525C6.94698 18.8193 6.96477 19.0456 7.00372 19.3123C7.08148 19.8448 7.24407 20.5421 7.59716 21.2531C8.3107 22.69 9.78628 24.1475 12.7994 24.4468L12.8478 23.9597C10.0053 23.6773 8.67547 22.3239 8.0356 21.0354C7.71198 20.3837 7.56085 19.7397 7.48811 19.2415C7.4518 18.9929 7.43514 18.7815 7.4261 18.6244C7.42156 18.5454 7.41898 18.481 7.41667 18.4295C7.41492 18.3906 7.41273 18.332 7.40512 18.2938L6.92501 18.3893Z" fill="url(#paint1_linear_1_371)"/>
<defs>
<linearGradient id="paint0_linear_1_371" x1="17.9986" y1="8.49369" x2="22.892" y2="11.3378" gradientUnits="userSpaceOnUse">
<stop stop-color="#793EFF"/>
<stop offset="0.53125" stop-color="#2F2E30"/>
<stop offset="0.984375" stop-color="#A588E7"/>
<stop offset="0.984475" stop-color="#EAE1FF"/>
</linearGradient>
<linearGradient id="paint1_linear_1_371" x1="12.3829" y1="23.7899" x2="6.52423" y2="21.7826" gradientUnits="userSpaceOnUse">
<stop stop-color="#793EFF"/>
<stop offset="0.53125" stop-color="#2F2E30"/>
<stop offset="0.984375" stop-color="#A588E7"/>
<stop offset="0.984475" stop-color="#EAE1FF"/>
</linearGradient>
</defs>
</svg>
