<svg width="17" height="22" viewBox="0 0 17 22" fill="none" xmlns="http://www.w3.org/2000/svg">
<path d="M11.036 0V5.58699H16.554L11.036 0ZM9.65653 5.58699V0H2.06926C0.926423 0 0 0.938003 0 2.09512V20.2528C0 21.4095 0.926423 22.348 2.06926 22.348H14.4848C15.6276 22.348 16.554 21.41 16.554 20.2528V6.98374H11.0748C10.273 6.98374 9.65653 6.35957 9.65653 5.58699ZM2.75901 3.14268C2.75901 2.95194 2.9155 2.7935 3.10388 2.7935H6.55264C6.74232 2.7935 6.89752 2.95194 6.89752 3.14268V3.84106C6.89752 4.03224 6.74232 4.19024 6.55264 4.19024H3.10388C2.9155 4.19024 2.75901 4.03224 2.75901 3.84106V3.14268ZM2.75901 5.93618C2.75901 5.74413 2.9155 5.58699 3.10388 5.58699H6.55264C6.74232 5.58699 6.89752 5.74413 6.89752 5.93618V6.63455C6.89752 6.8266 6.74232 6.98374 6.55264 6.98374H3.10388C2.9155 6.98374 2.75901 6.8266 2.75901 6.63455V5.93618ZM13.1053 16.761C13.4879 16.761 13.795 17.072 13.795 17.4593C13.795 17.8467 13.489 18.1577 13.1053 18.1577H11.0684C10.3622 18.1577 9.72119 17.7594 9.40304 17.1154C9.2791 16.859 9.05817 16.8317 8.96677 16.8317C8.87538 16.8317 8.65423 16.859 8.53568 17.099L8.20158 17.7703C8.08734 18.0093 7.80713 18.1577 7.58727 18.1577H7.53985C7.25964 18.1359 7.02254 17.9504 6.93632 17.6776L6.20777 15.4777L5.75081 16.8701C5.49646 17.6383 4.78515 18.1577 3.98246 18.1577H3.44876C3.06638 18.1577 2.75901 17.8478 2.75901 17.4593C2.75901 17.0709 3.06638 16.761 3.44876 16.761H3.98246C4.19261 16.761 4.37583 16.6246 4.44028 16.4282L5.22703 14.0436C5.36713 13.6139 5.75943 13.3258 6.20777 13.3258C6.65611 13.3258 7.0484 13.615 7.18851 14.046L7.78687 15.8631C8.63828 15.1538 10.1204 15.4376 10.6321 16.4794C10.7183 16.654 10.8908 16.7632 11.0684 16.7632H13.1053V16.761Z" fill="#805AD5"/>
</svg>
