<svg width="21" height="17" viewBox="0 0 21 17" fill="none" xmlns="http://www.w3.org/2000/svg">
<path d="M18.7537 0H2.08374C0.927265 0 0.0104187 0.927265 0.0104187 2.08374L0 14.5862C0 15.7427 0.927265 16.6699 2.08374 16.6699H18.7537C19.9101 16.6699 20.8374 15.7427 20.8374 14.5862V2.08374C20.8374 0.927265 19.9101 0 18.7537 0ZM9.37683 6.25122H6.25122V7.29309H9.37683C9.94986 7.29309 10.4187 7.76193 10.4187 8.33496V11.4606C10.4187 12.0336 9.94986 12.5024 9.37683 12.5024H8.33496C8.33496 13.0755 7.86612 13.5443 7.29309 13.5443C6.72006 13.5443 6.25122 13.0755 6.25122 12.5024H5.20935C4.63632 12.5024 4.16748 12.0336 4.16748 11.4606C4.16748 10.8875 4.63632 10.4187 5.20935 10.4187H8.33496V9.37683H5.20935C4.63632 9.37683 4.16748 8.90799 4.16748 8.33496V5.20935C4.16748 4.63632 4.63632 4.16748 5.20935 4.16748H6.25122C6.25122 3.59445 6.72006 3.12561 7.29309 3.12561C7.86612 3.12561 8.33496 3.59445 8.33496 4.16748H9.37683C9.94986 4.16748 10.4187 4.63632 10.4187 5.20935C10.4187 5.78238 9.94986 6.25122 9.37683 6.25122ZM14.2215 12.3983L12.5024 10.6792H16.6699L14.9508 12.3983C14.7529 12.5962 14.4195 12.5962 14.2215 12.3983ZM12.5024 6.25122L14.2215 4.53214C14.4299 4.32376 14.7529 4.32376 14.9613 4.53214L16.6699 6.25122H12.5024Z" fill="#805AD5"/>
</svg>
