<svg width="12" height="6" viewBox="0 0 12 6" fill="none" xmlns="http://www.w3.org/2000/svg">
<path d="M6.40206 5.61421L11.051 0.735039C11.1286 0.653627 11.1719 0.545467 11.1719 0.432991C11.1719 0.320514 11.1286 0.212354 11.051 0.130943L11.0457 0.125689C11.0081 0.0860863 10.9628 0.0545511 10.9126 0.0330019C10.8624 0.0114522 10.8084 0.000339476 10.7537 0.000339472C10.6991 0.000339467 10.6451 0.0114522 10.5949 0.0330018C10.5447 0.0545511 10.4994 0.0860862 10.4618 0.125689L6.08425 4.72032L1.70849 0.125689C1.67087 0.0860854 1.62558 0.0545503 1.57539 0.0330011C1.52519 0.0114514 1.47114 0.00033866 1.41651 0.000338655C1.36189 0.00033865 1.30783 0.0114513 1.25764 0.033001C1.20744 0.0545503 1.16216 0.0860854 1.12453 0.125689L1.11928 0.130942C1.04167 0.212353 0.998377 0.320513 0.998377 0.43299C0.998377 0.545466 1.04167 0.653627 1.11928 0.735038L5.76819 5.61421C5.80908 5.65712 5.85825 5.69128 5.91273 5.71462C5.96721 5.73796 6.02586 5.75 6.08513 5.75C6.14439 5.75 6.20305 5.73796 6.25752 5.71462C6.312 5.69128 6.36117 5.65712 6.40206 5.61421Z" fill="white"/>
</svg>
