<svg width="27" height="34" viewBox="0 0 27 34" fill="none" xmlns="http://www.w3.org/2000/svg">
<rect x="0.571177" y="0.731277" width="26.3433" height="32.4226" rx="3.03962" fill="#805AD5"/>
<path d="M7.09059 10.2618H6.27496V5.02048H9.57295V5.80774H7.09059V7.24042H9.25379V8.02058H7.09059V10.2618ZM13.7673 8.27591C13.7673 8.39885 13.7578 8.52415 13.7389 8.65181H10.753C10.8097 8.95915 10.9445 9.20266 11.1573 9.38233C11.3748 9.56201 11.6632 9.65185 12.0226 9.65185C12.2401 9.65185 12.467 9.61402 12.7034 9.53837C12.9446 9.46271 13.1503 9.36342 13.3205 9.24048L13.6467 9.81497C13.1692 10.1696 12.6183 10.3469 11.9942 10.3469C11.3228 10.3469 10.8121 10.1507 10.4622 9.75823C10.1171 9.36578 9.94447 8.89295 9.94447 8.33974C9.94447 7.76289 10.1241 7.2877 10.4835 6.91416C10.8476 6.5359 11.318 6.34677 11.8949 6.34677C12.4481 6.34677 12.8973 6.51935 13.2425 6.86452C13.5923 7.21441 13.7673 7.68488 13.7673 8.27591ZM11.8949 7.02055C11.6017 7.02055 11.3511 7.11275 11.1431 7.29716C10.9398 7.47683 10.8097 7.71561 10.753 8.01349H12.98C12.9469 7.71561 12.8287 7.47683 12.6254 7.29716C12.4268 7.11275 12.1833 7.02055 11.8949 7.02055ZM18.1377 8.27591C18.1377 8.39885 18.1283 8.52415 18.1094 8.65181H15.1234C15.1802 8.95915 15.3149 9.20266 15.5277 9.38233C15.7452 9.56201 16.0336 9.65185 16.393 9.65185C16.6105 9.65185 16.8375 9.61402 17.0739 9.53837C17.315 9.46271 17.5207 9.36342 17.6909 9.24048L18.0172 9.81497C17.5396 10.1696 16.9888 10.3469 16.3646 10.3469C15.6932 10.3469 15.1825 10.1507 14.8327 9.75823C14.4875 9.36578 14.3149 8.89295 14.3149 8.33974C14.3149 7.76289 14.4946 7.2877 14.8539 6.91416C15.218 6.5359 15.6885 6.34677 16.2653 6.34677C16.8185 6.34677 17.2677 6.51935 17.6129 6.86452C17.9628 7.21441 18.1377 7.68488 18.1377 8.27591ZM16.2653 7.02055C15.9722 7.02055 15.7216 7.11275 15.5135 7.29716C15.3102 7.47683 15.1802 7.71561 15.1234 8.01349H17.3505C17.3174 7.71561 17.1992 7.47683 16.9958 7.29716C16.7973 7.11275 16.5538 7.02055 16.2653 7.02055ZM20.0331 10.354C19.7305 10.354 19.4491 10.2854 19.1891 10.1483C18.929 10.0112 18.721 9.81261 18.5649 9.55255L19.0685 9.09863C19.182 9.28304 19.3262 9.42725 19.5011 9.53127C19.6808 9.63057 19.8629 9.68022 20.0473 9.68022C20.2317 9.68022 20.383 9.6353 20.5012 9.54546C20.6194 9.45089 20.6785 9.33741 20.6785 9.20502C20.6785 9.01589 20.5697 8.86931 20.3522 8.76529C20.2955 8.73219 20.1418 8.66836 19.8912 8.57379C19.6359 8.46504 19.4751 8.39176 19.4089 8.35393C19.0023 8.14116 18.799 7.82672 18.799 7.41063C18.799 7.09384 18.9172 6.83142 19.1536 6.62337C19.3995 6.41533 19.7163 6.31131 20.104 6.31131C20.6478 6.31131 21.0662 6.50753 21.3594 6.89998L20.9054 7.38226C20.6785 7.1033 20.3995 6.96381 20.0685 6.96381C19.9125 6.96381 19.7872 7.004 19.6926 7.08438C19.6028 7.16476 19.5579 7.26406 19.5579 7.38226C19.5579 7.5714 19.6643 7.71088 19.877 7.80072L20.2671 7.96384C20.5177 8.06787 20.6974 8.14825 20.8062 8.20499C21.2412 8.43195 21.4587 8.75347 21.4587 9.16956C21.4587 9.50527 21.3263 9.7866 21.0615 10.0136C20.7967 10.2405 20.4539 10.354 20.0331 10.354Z" fill="white"/>
<circle cx="9.9437" cy="15.674" r="0.759904" fill="white"/>
<circle cx="13.4881" cy="15.674" r="0.759904" fill="white"/>
<circle cx="17.0389" cy="15.674" r="0.759904" fill="white"/>
<rect x="2.59702" y="17.957" width="21.7839" height="1.51981" rx="0.759904" fill="white"/>
<rect x="2.59702" y="20.9962" width="21.7839" height="1.51981" rx="0.759904" fill="white"/>
<rect x="2.59702" y="24.0353" width="21.7839" height="1.51981" rx="0.759904" fill="white"/>
<rect x="2.59702" y="27.0745" width="21.7839" height="1.51981" rx="0.759904" fill="white"/>
</svg>
