<svg width="25" height="18" viewBox="0 0 25 18" fill="none" xmlns="http://www.w3.org/2000/svg">
<path d="M4.99962 2.50049H0.973835C0.511244 2.50049 0.048654 2.90057 0.111166 3.55069L2.06155 16.0406C2.06155 16.0406 4.3745 6.83884 4.82459 4.6259C4.96211 3.96327 5.58724 3.75073 6.04983 3.75073H12.5011C12.5011 3.75073 11.6259 1.15022 11.5384 0.862669C11.3884 0.312561 11.1133 0 10.5632 0H6.4249C5.97481 0 5.54973 0.287556 5.42471 0.800157C5.31218 1.30025 4.99962 2.50049 4.99962 2.50049ZM11.1008 2.50049H6.09984C6.09984 2.50049 6.62494 1.25024 7.18755 1.25024H9.85057C10.4507 1.25024 11.1008 2.50049 11.1008 2.50049ZM3.3368 16.5657C2.94922 17.1534 2.38661 17.5034 1.76149 17.5034H21.4278C22.103 17.5034 22.5781 17.1158 22.7156 16.4657C23.2657 13.7277 24.816 5.91366 24.816 5.91366C24.9035 5.28853 24.4409 5.00098 24.0408 5.00098H20.0026V3.16312C20.0026 2.96308 19.6775 2.50049 19.1774 2.50049H14.4765C13.8263 2.50049 13.3888 3.22563 13.3888 3.22563L12.5011 5.00098H6.98751C6.58743 5.00098 6.19986 5.23852 6.12484 5.6261C6.12484 5.6261 4.13695 14.0027 3.97442 14.7904C3.8869 15.253 3.69937 16.0281 3.3368 16.5657V16.5657ZM19.2274 5.00098H13.7513C13.7513 5.00098 14.4765 3.75073 15.1641 3.75073H18.0272C18.9148 3.75073 19.2274 5.00098 19.2274 5.00098V5.00098Z" fill="#805AD5"/>
</svg>
