<svg width="22" height="22" viewBox="0 0 22 22" fill="none" xmlns="http://www.w3.org/2000/svg">
<path d="M19.4324 7.58388L19.2611 7.64837L19.324 7.82032C19.6807 8.79436 19.8617 9.82079 19.8617 10.8709C19.8617 15.7082 15.9793 19.6395 11.2126 19.6395C8.75362 19.6395 6.43344 18.5771 4.80392 16.7532H7.19725H7.38199V16.5685V15.7546V15.5698H7.19725H3.18188H2.99714V15.7546V19.8243V20.009H3.18188H3.98496H4.1697V19.8243V17.807C6.00394 19.7183 8.53621 20.8229 11.2126 20.8229C16.6309 20.8229 21.0342 16.356 21.0342 10.8709C21.0342 9.68067 20.8289 8.51639 20.4239 7.41003L20.3598 7.235L20.1853 7.30063L19.4324 7.58388Z" fill="#805AD5" stroke="#805AD5" stroke-width="0.369491"/>
<path d="M15.2924 5.77339V5.95813H15.4772H19.7435H19.9282V5.77339V1.70369V1.51895H19.7435H18.8902H18.7055V1.70369V3.74002C16.756 1.81549 14.0599 0.70501 11.2108 0.70501C5.47151 0.70501 0.786934 5.16145 0.786934 10.657C0.786934 11.8487 1.00534 13.0142 1.43604 14.1214L1.50099 14.2884L1.66988 14.2286L2.46982 13.9453L2.6494 13.8817L2.58032 13.7042C2.20171 12.731 2.00969 11.7058 2.00969 10.657C2.00969 5.83023 6.1291 1.88844 11.2108 1.88844C13.8301 1.88844 16.2966 2.95201 18.0286 4.7747H15.4772H15.2924V4.95945V5.77339Z" fill="#805AD5" stroke="#805AD5" stroke-width="0.369491"/>
</svg>
