<svg width="78" height="78" viewBox="0 0 78 78" fill="none" xmlns="http://www.w3.org/2000/svg">
<rect x="0.516144" y="0.189102" width="77.4265" height="76.9237" rx="38.4618" fill="#805AD5"/>
<path d="M37.8799 52.8449H27.8127V24.7709H38.2598C42.236 24.7709 45.3764 26.0372 47.6811 28.5698C50.0111 31.1278 51.1761 34.5595 51.1761 38.8649C51.1761 43.1956 49.9857 46.602 47.6051 49.084C45.2498 51.5912 42.008 52.8449 37.8799 52.8449ZM31.6117 28.3799V49.2359H38.0318C40.8937 49.2359 43.1477 48.2609 44.7939 46.3108C46.4148 44.3606 47.2252 41.8407 47.2252 38.7509C47.2252 35.7118 46.4148 33.2298 44.7939 31.305C43.1477 29.3549 40.8937 28.3799 38.0318 28.3799H31.6117Z" fill="white"/>
</svg>
