<svg width="147" height="35" viewBox="0 0 147 35" fill="none" xmlns="http://www.w3.org/2000/svg">
<path d="M0.425781 20.5639H5.33849L7.52192 27.7424L11.3429 23.3249C11.8888 26.2699 13.308 31.939 14.6181 31.0555C15.9281 30.172 16.9834 27.3742 17.3473 26.0858L21.1683 27.7424L26.081 26.0858L29.902 23.3249L33.723 27.7424L37.544 31.0555V27.7424C38.6357 27.1902 41.365 26.0858 43.5485 26.0858C45.7319 26.0858 48.4612 22.4046 49.5529 20.5639L55.0114 27.7424L57.1949 20.5639L60.47 31.0555L65.3827 32.7121L68.6579 31.0555V18.9074L72.4789 32.7121C73.3886 31.0555 75.6448 27.7424 77.3916 27.7424C79.1383 27.7424 83.5779 24.7974 85.5794 23.3249L89.9463 20.5639L92.1297 18.9074H97.0424L100.318 15.0421L102.501 18.9074L112.872 7.86364C114.146 7.31145 116.912 6.53839 117.785 7.86364C118.658 9.18889 120.332 11.7286 121.06 12.8328L124.881 9.51968L126.519 7.86364L129.248 12.8328L133.615 7.86364L137.436 1.78906L140.711 9.51968L142.348 7.86364L146.715 5.10218" stroke="#32D25A"/>
</svg>
