<svg width="41" height="41" viewBox="0 0 41 41" fill="none" xmlns="http://www.w3.org/2000/svg">
<ellipse cx="20.2047" cy="20.4256" rx="20.2047" ry="20.4256" fill="#A588E7"/>
<path d="M19.7497 27H15V14H19.908C21.7961 14 23.2738 14.5864 24.341 15.7591C25.4317 16.9319 25.977 18.521 25.977 20.5264C25.977 22.5083 25.4199 24.0857 24.3058 25.2585C23.1917 26.4195 21.673 27 19.7497 27ZM17.023 15.935V25.065H19.8376C21.1042 25.065 22.0893 24.6369 22.793 23.7808C23.5083 22.9247 23.866 21.8223 23.866 20.4736C23.866 19.1601 23.5083 18.0753 22.793 17.2192C22.0893 16.3631 21.1101 15.935 19.8552 15.935H17.023Z" fill="white"/>
</svg>
