<svg width="21" height="21" viewBox="0 0 21 21" fill="none" xmlns="http://www.w3.org/2000/svg">
<path d="M18.0504 0.292969H10.7834L9.14241 3.57486H0V16.7024H19.6914V0.292969H18.0504ZM18.0504 3.57486H11.6429L12.5024 1.93391H18.0504V3.57486Z" fill="#AA84FF"/>
<path d="M12.1903 5.76268V6.93478H9.06465C8.65055 6.93602 8.25376 7.10107 7.96095 7.39389C7.66813 7.6867 7.50308 8.08349 7.50185 8.49759V11.6232H6.32974C5.81164 11.6232 5.31476 11.829 4.9484 12.1954C4.58205 12.5617 4.37624 13.0586 4.37624 13.5767C4.37624 14.0948 4.58205 14.5917 4.9484 14.958C5.31476 15.3244 5.81164 15.5302 6.32974 15.5302H7.50185V18.6558C7.50308 19.0699 7.66813 19.4667 7.96095 19.7595C8.25376 20.0523 8.65055 20.2174 9.06465 20.2186H12.034V19.0465C12.034 18.487 12.2563 17.9503 12.6519 17.5547C13.0476 17.159 13.5842 16.9367 14.1438 16.9367C14.7033 16.9367 15.24 17.159 15.6356 17.5547C16.0313 17.9503 16.2536 18.487 16.2536 19.0465V20.2186H19.2229C19.637 20.2174 20.0338 20.0523 20.3266 19.7595C20.6194 19.4667 20.7845 19.0699 20.7857 18.6558V15.6865H19.6136C19.054 15.6865 18.5174 15.4642 18.1217 15.0686C17.7261 14.6729 17.5038 14.1363 17.5038 13.5767C17.5038 13.0172 17.7261 12.4805 18.1217 12.0849C18.5174 11.6892 19.054 11.4669 19.6136 11.4669H20.7857V8.49759C20.7845 8.08349 20.6194 7.6867 20.3266 7.39389C20.0338 7.10107 19.637 6.93602 19.2229 6.93478H16.0973V5.76268C16.0973 5.24458 15.8915 4.7477 15.5251 4.38134C15.1588 4.01499 14.6619 3.80917 14.1438 3.80917C13.6257 3.80917 13.1288 4.01499 12.7624 4.38134C12.3961 4.7477 12.1903 5.24458 12.1903 5.76268Z" fill="#7F56DC"/>
</svg>
