<svg width="20" height="20" viewBox="0 0 20 20" fill="none" xmlns="http://www.w3.org/2000/svg">
<path d="M19.4463 17.9427L13.2662 11.7626C14.2252 10.5228 14.744 9.00692 14.744 7.41252C14.744 5.50401 13.9991 3.71448 12.6522 2.36519C11.3053 1.0159 9.51104 0.273438 7.6049 0.273438C5.69877 0.273438 3.90448 1.01828 2.55757 2.36519C1.20828 3.7121 0.46582 5.50401 0.46582 7.41252C0.46582 9.31866 1.21066 11.1129 2.55757 12.4599C3.90448 13.8091 5.69639 14.5516 7.6049 14.5516C9.1993 14.5516 10.7128 14.0328 11.9526 13.0762L18.1327 19.2539C18.1508 19.272 18.1723 19.2864 18.196 19.2962C18.2197 19.306 18.2451 19.3111 18.2707 19.3111C18.2963 19.3111 18.3217 19.306 18.3454 19.2962C18.3691 19.2864 18.3906 19.272 18.4087 19.2539L19.4463 18.2187C19.4644 18.2006 19.4788 18.1791 19.4886 18.1554C19.4984 18.1317 19.5035 18.1063 19.5035 18.0807C19.5035 18.0551 19.4984 18.0297 19.4886 18.006C19.4788 17.9823 19.4644 17.9608 19.4463 17.9427ZM11.3743 11.182C10.3653 12.1886 9.02796 12.743 7.6049 12.743C6.18185 12.743 4.84446 12.1886 3.83547 11.182C2.82886 10.173 2.27439 8.83558 2.27439 7.41252C2.27439 5.98946 2.82886 4.6497 3.83547 3.64308C4.84446 2.63647 6.18185 2.08201 7.6049 2.08201C9.02796 2.08201 10.3677 2.63409 11.3743 3.64308C12.3809 4.65207 12.9354 5.98946 12.9354 7.41252C12.9354 8.83558 12.3809 10.1753 11.3743 11.182Z" fill="#805AD5"/>
</svg>
