<svg width="21" height="22" viewBox="0 0 21 22" fill="none" xmlns="http://www.w3.org/2000/svg">
<path d="M10.3509 7.94955C9.6208 7.94955 8.93707 8.23281 8.4194 8.75049C7.90416 9.26817 7.61846 9.9519 7.61846 10.682C7.61846 11.4121 7.90416 12.0959 8.4194 12.6136C8.93707 13.1288 9.6208 13.4145 10.3509 13.4145C11.081 13.4145 11.7648 13.1288 12.2825 12.6136C12.7977 12.0959 13.0834 11.4121 13.0834 10.682C13.0834 9.9519 12.7977 9.26817 12.2825 8.75049C12.0296 8.4957 11.7286 8.29368 11.3971 8.15619C11.0655 8.01869 10.7099 7.94845 10.3509 7.94955ZM20.4188 13.7002L18.8218 12.3352C18.8975 11.8712 18.9366 11.3975 18.9366 10.9262C18.9366 10.4549 18.8975 9.97876 18.8218 9.51724L20.4188 8.15223C20.5394 8.04895 20.6258 7.9114 20.6664 7.75786C20.7069 7.60432 20.6998 7.44207 20.6459 7.29269L20.6239 7.2292C20.1844 6.00017 19.5259 4.86095 18.6802 3.86672L18.6362 3.81544C18.5335 3.6947 18.3967 3.6079 18.2437 3.56649C18.0907 3.52508 17.9287 3.531 17.7791 3.58346L15.7963 4.28917C15.0638 3.68847 14.2482 3.21474 13.3642 2.88509L12.9808 0.811926C12.9519 0.655749 12.8761 0.512069 12.7636 0.399975C12.6511 0.287881 12.5071 0.21268 12.3508 0.184362L12.2849 0.172153C11.0151 -0.0573843 9.67696 -0.0573843 8.40719 0.172153L8.34126 0.184362C8.18497 0.21268 8.04099 0.287881 7.92846 0.399975C7.81593 0.512069 7.74017 0.655749 7.71125 0.811926L7.32543 2.89485C6.44984 3.22714 5.63417 3.69971 4.91041 4.29405L2.91295 3.58346C2.76342 3.53058 2.60134 3.52445 2.44825 3.56588C2.29515 3.60732 2.15829 3.69436 2.05585 3.81544L2.01189 3.86672C1.16772 4.86201 0.509334 6.00095 0.0681556 7.2292L0.0461787 7.29269C-0.0637061 7.59792 0.0266437 7.93979 0.273274 8.15223L1.8898 9.53189C1.8141 9.99097 1.77747 10.4598 1.77747 10.9238C1.77747 11.3926 1.8141 11.8615 1.8898 12.3156L0.278158 13.6953C0.157518 13.7986 0.0711748 13.9361 0.0306091 14.0897C-0.00995659 14.2432 -0.00282272 14.4055 0.0510623 14.5548L0.0730393 14.6183C0.51502 15.8466 1.167 16.9821 2.01678 17.9808L2.06073 18.0321C2.16342 18.1528 2.30029 18.2396 2.45329 18.281C2.6063 18.3225 2.76826 18.3165 2.91783 18.2641L4.91529 17.5535C5.64297 18.1517 6.45368 18.6255 7.33032 18.9527L7.71613 21.0356C7.74506 21.1918 7.82082 21.3355 7.93335 21.4476C8.04588 21.5597 8.18985 21.6349 8.34614 21.6632L8.41207 21.6754C9.69434 21.9062 11.0075 21.9062 12.2898 21.6754L12.3557 21.6632C12.512 21.6349 12.656 21.5597 12.7685 21.4476C12.881 21.3355 12.9568 21.1918 12.9857 21.0356L13.3691 18.9624C14.2531 18.6304 15.0686 18.1591 15.8012 17.5584L17.784 18.2641C17.9335 18.317 18.0956 18.3231 18.2487 18.2817C18.4018 18.2402 18.5387 18.1532 18.6411 18.0321L18.6851 17.9808C19.5348 16.9772 20.1868 15.8466 20.6288 14.6183L20.6508 14.5548C20.7558 14.2521 20.6654 13.9126 20.4188 13.7002ZM10.3509 14.9749C7.97986 14.9749 6.05809 13.0531 6.05809 10.682C6.05809 8.31095 7.97986 6.38919 10.3509 6.38919C12.722 6.38919 14.6438 8.31095 14.6438 10.682C14.6438 13.0531 12.722 14.9749 10.3509 14.9749Z" fill="#805AD5"/>
</svg>
