<svg width="23" height="22" viewBox="0 0 23 22" fill="none" xmlns="http://www.w3.org/2000/svg">
<path d="M11.0156 8.96045C10.0671 8.96045 9.26562 9.76195 9.26562 10.7104C9.26562 11.6589 10.0671 12.4604 11.0156 12.4604C11.9641 12.4604 12.7656 11.6589 12.7656 10.7104C12.7656 9.76195 11.9641 8.96045 11.0156 8.96045Z" fill="#805AD5"/>
<path d="M11.016 4.58545C4.33713 4.58545 2.32988 10.3753 2.3115 10.4339L2.21875 10.7104L2.31063 10.9869C2.32988 11.0456 4.33713 16.8354 11.016 16.8354C17.6949 16.8354 19.7021 11.0456 19.7205 10.9869L19.8133 10.7104L19.7214 10.4339C19.7021 10.3753 17.6949 4.58545 11.016 4.58545ZM11.016 14.2104C9.08575 14.2104 7.516 12.6407 7.516 10.7104C7.516 8.7802 9.08575 7.21045 11.016 7.21045C12.9462 7.21045 14.516 8.7802 14.516 10.7104C14.516 12.6407 12.9462 14.2104 11.016 14.2104Z" fill="#805AD5"/>
<path d="M0.820312 4.14795L21.2148 17.271" stroke="#805AD5" stroke-width="2"/>
</svg>
