<svg width="21" height="21" viewBox="0 0 21 21" fill="none" xmlns="http://www.w3.org/2000/svg">
<path d="M3.93833 3.28281C3.93833 3.10876 3.86919 2.94184 3.74612 2.81877C3.62305 2.6957 3.45613 2.62656 3.28208 2.62656C3.10803 2.62656 2.94111 2.6957 2.81804 2.81877C2.69497 2.94184 2.62583 3.10876 2.62583 3.28281V14.8236L1.1217 13.3182C0.998478 13.195 0.831347 13.1257 0.657079 13.1257C0.482811 13.1257 0.31568 13.195 0.192454 13.3182C0.0692278 13.4414 4.1059e-09 13.6085 0 13.7828C-4.1059e-09 13.9571 0.0692278 14.1242 0.192454 14.2474L2.81745 16.8711L2.82664 16.8803C2.94985 17.0004 3.11555 17.067 3.28764 17.0656C3.45972 17.0641 3.62426 16.9947 3.74539 16.8724L6.37039 14.2474C6.43141 14.1865 6.47982 14.1141 6.51288 14.0345C6.54593 13.9549 6.56298 13.8695 6.56304 13.7833C6.5631 13.697 6.54617 13.6116 6.51323 13.532C6.48029 13.4523 6.43198 13.3799 6.37105 13.3188C6.31012 13.2578 6.23777 13.2094 6.15813 13.1763C6.07849 13.1433 5.99311 13.1263 5.90689 13.1262C5.82066 13.1261 5.73526 13.1431 5.65558 13.176C5.57589 13.2089 5.50347 13.2573 5.44245 13.3182L3.93833 14.8236V3.28281ZM8.53208 4.59531C8.53208 4.42126 8.60122 4.25434 8.72429 4.13127C8.84736 4.0082 9.01428 3.93906 9.18833 3.93906H18.3758C18.5499 3.93906 18.7168 4.0082 18.8399 4.13127C18.9629 4.25434 19.0321 4.42126 19.0321 4.59531C19.0321 4.76935 18.9629 4.93627 18.8399 5.05934C18.7168 5.18242 18.5499 5.25156 18.3758 5.25156H9.18833C9.01428 5.25156 8.84736 5.18242 8.72429 5.05934C8.60122 4.93627 8.53208 4.76935 8.53208 4.59531ZM9.18833 7.87656C9.01428 7.87656 8.84736 7.9457 8.72429 8.06877C8.60122 8.19184 8.53208 8.35876 8.53208 8.53281C8.53208 8.70685 8.60122 8.87377 8.72429 8.99684C8.84736 9.11992 9.01428 9.18906 9.18833 9.18906H15.7508C15.9249 9.18906 16.0918 9.11992 16.2149 8.99684C16.3379 8.87377 16.4071 8.70685 16.4071 8.53281C16.4071 8.35876 16.3379 8.19184 16.2149 8.06877C16.0918 7.9457 15.9249 7.87656 15.7508 7.87656H9.18833ZM9.18833 11.8141C9.01428 11.8141 8.84736 11.8832 8.72429 12.0063C8.60122 12.1293 8.53208 12.2963 8.53208 12.4703C8.53208 12.6444 8.60122 12.8113 8.72429 12.9343C8.84736 13.0574 9.01428 13.1266 9.18833 13.1266H13.1258C13.2999 13.1266 13.4668 13.0574 13.5899 12.9343C13.7129 12.8113 13.7821 12.6444 13.7821 12.4703C13.7821 12.2963 13.7129 12.1293 13.5899 12.0063C13.4668 11.8832 13.2999 11.8141 13.1258 11.8141H9.18833ZM9.18833 15.7516C9.01428 15.7516 8.84736 15.8207 8.72429 15.9438C8.60122 16.0668 8.53208 16.2338 8.53208 16.4078C8.53208 16.5819 8.60122 16.7488 8.72429 16.8718C8.84736 16.9949 9.01428 17.0641 9.18833 17.0641H10.5008C10.6749 17.0641 10.8418 16.9949 10.9649 16.8718C11.0879 16.7488 11.1571 16.5819 11.1571 16.4078C11.1571 16.2338 11.0879 16.0668 10.9649 15.9438C10.8418 15.8207 10.6749 15.7516 10.5008 15.7516H9.18833Z" fill="#805AD5"/>
</svg>
