<svg width="10" height="11" viewBox="0 0 10 11" fill="none" xmlns="http://www.w3.org/2000/svg">
<path fill-rule="evenodd" clip-rule="evenodd" d="M5.15062 0.406205C4.97818 0.406205 4.81281 0.474704 4.69088 0.596633C4.56895 0.718562 4.50046 0.883933 4.50046 1.05637L4.50046 8.58915L1.70996 5.79735C1.64951 5.7369 1.57775 5.68895 1.49877 5.65624C1.41978 5.62352 1.33513 5.60668 1.24964 5.60668C1.16416 5.60668 1.0795 5.62352 1.00052 5.65624C0.921543 5.68895 0.849779 5.7369 0.789329 5.79735C0.72888 5.8578 0.680929 5.92956 0.648214 6.00854C0.615498 6.08753 0.598661 6.17218 0.598661 6.25767C0.598661 6.34315 0.615498 6.42781 0.648214 6.50679C0.680929 6.58577 0.72888 6.65753 0.789329 6.71798L4.6903 10.619C4.7507 10.6795 4.82245 10.7275 4.90143 10.7603C4.98042 10.7931 5.0651 10.81 5.15062 10.81C5.23614 10.81 5.32082 10.7931 5.3998 10.7603C5.47879 10.7275 5.55054 10.6795 5.61093 10.619L9.51191 6.71798C9.57236 6.65753 9.62031 6.58577 9.65302 6.50679C9.68574 6.4278 9.70258 6.34315 9.70258 6.25766C9.70258 6.17218 9.68574 6.08752 9.65302 6.00854C9.62031 5.92956 9.57236 5.8578 9.51191 5.79735C9.38982 5.67527 9.22424 5.60668 9.05159 5.60668C8.9661 5.60668 8.88145 5.62352 8.80247 5.65623C8.72349 5.68895 8.65173 5.7369 8.59128 5.79735L5.80078 8.58915L5.80078 1.05637C5.80078 0.883933 5.73228 0.718562 5.61035 0.596633C5.48842 0.474704 5.32305 0.406205 5.15062 0.406205Z" fill="#FF0000"/>
</svg>
