<svg width="31" height="33" viewBox="0 0 31 33" fill="none" xmlns="http://www.w3.org/2000/svg">
<rect width="15.3074" height="28.3792" rx="1.83987" transform="matrix(0.86743 -0.497559 0.502445 0.864609 0.82391 8.41777)" fill="#805AD5"/>
<path d="M19.0801 17.506C19.4893 18.2101 19.6046 18.9359 19.426 19.6831C19.251 20.417 18.8387 21.055 18.1891 21.5973L18.9657 22.9335L17.8038 23.6L17.0495 22.3019C16.4057 22.5807 15.7433 22.7005 15.0622 22.6613C14.3763 22.6136 13.7326 22.3945 13.1313 22.0042L13.6585 20.48C14.1595 20.8148 14.6797 20.9972 15.2191 21.0271C15.7537 21.0486 16.2422 20.9324 16.6848 20.6785C17.1615 20.4051 17.4713 20.069 17.6141 19.6704C17.752 19.2632 17.715 18.8772 17.503 18.5124C17.2318 18.0458 16.6936 17.8228 15.8885 17.8434L14.7306 17.9307C14.0769 17.9776 13.595 17.9882 13.285 17.9624C12.0206 17.8958 11.1271 17.4129 10.6044 16.5136C10.215 15.8433 10.1017 15.1504 10.2646 14.4348C10.4396 13.7009 10.86 13.0865 11.5257 12.5915L10.8305 11.3953L11.9924 10.7288L12.6949 11.9378C13.6519 11.5925 14.6226 11.6126 15.607 11.9982L15.2572 13.5054C14.3427 13.1816 13.5279 13.2247 12.8129 13.6348C12.4214 13.8594 12.1595 14.151 12.0274 14.5096C11.8904 14.8596 11.923 15.2086 12.1251 15.5565C12.3716 15.9807 12.8854 16.2007 13.6663 16.2165C13.8384 16.2197 14.2824 16.2025 14.9983 16.1652C15.7618 16.1119 16.2649 16.0891 16.5078 16.0968C17.7 16.1369 18.5575 16.6066 19.0801 17.506Z" fill="white"/>
<rect x="14.8677" y="0.793121" width="15.3322" height="28.3328" rx="1.83987" fill="url(#paint0_linear_1_388)"/>
<path d="M26.0861 17.7523C26.0861 18.5668 25.8211 19.2537 25.2912 19.813C24.7712 20.3625 24.0941 20.7108 23.26 20.858V22.4035H21.9206V20.9022C21.2239 20.8237 20.591 20.598 20.0218 20.2251C19.4527 19.8424 19.0062 19.3322 18.6824 18.6944L19.9041 17.6346C20.169 18.1743 20.5272 18.5913 20.9786 18.8857C21.43 19.1703 21.9108 19.3125 22.421 19.3125C22.9705 19.3125 23.4072 19.1752 23.731 18.9004C24.0548 18.6159 24.2168 18.2626 24.2168 17.8407C24.2168 17.301 23.8635 16.8398 23.157 16.4571L22.1119 15.9566C21.5232 15.6721 21.1012 15.4415 20.8461 15.2648C19.7863 14.578 19.2565 13.7144 19.2565 12.6743C19.2565 11.8991 19.5067 11.2417 20.0071 10.702C20.5272 10.1525 21.1994 9.82864 22.0236 9.73051V8.34693H23.3631V9.74523C24.3639 9.92186 25.1931 10.4223 25.8506 11.2466L24.7908 12.3799C24.1628 11.644 23.4366 11.276 22.6124 11.276C22.161 11.276 21.7881 11.3987 21.4937 11.644C21.1994 11.8795 21.0522 12.1984 21.0522 12.6007C21.0522 13.0913 21.3858 13.5378 22.0531 13.9401C22.2003 14.0284 22.5928 14.2345 23.2306 14.5583C23.9175 14.892 24.3639 15.1226 24.57 15.2501C25.5807 15.8781 26.0861 16.7122 26.0861 17.7523Z" fill="white"/>
<defs>
<linearGradient id="paint0_linear_1_388" x1="16.0608" y1="2.82479" x2="35.8616" y2="12.2718" gradientUnits="userSpaceOnUse">
<stop stop-color="#A588E7"/>
<stop offset="0.53125" stop-color="#9465FE"/>
<stop offset="0.984375" stop-color="#A588E7"/>
<stop offset="0.984475" stop-color="#A588E7"/>
</linearGradient>
</defs>
</svg>
